<svg width="81" height="81" viewBox="0 0 81 81" fill="none" xmlns="http://www.w3.org/2000/svg">
<circle cx="40.5" cy="40.5" r="40.5" fill="#F3EFEF"/>
<path d="M54.8334 56.625V53.0417C54.8334 51.1409 54.0784 49.3181 52.7343 47.9741C51.3903 46.6301 49.5675 45.875 47.6667 45.875H33.3334C31.4327 45.875 29.6098 46.6301 28.2658 47.9741C26.9218 49.3181 26.1667 51.1409 26.1667 53.0417V56.625" stroke="#8D70DD" stroke-width="3.58333" stroke-linecap="round" stroke-linejoin="round"/>
<path d="M40.4999 38.7083C44.458 38.7083 47.6666 35.4997 47.6666 31.5417C47.6666 27.5836 44.458 24.375 40.4999 24.375C36.5419 24.375 33.3333 27.5836 33.3333 31.5417C33.3333 35.4997 36.5419 38.7083 40.4999 38.7083Z" stroke="#8D70DD" stroke-width="3.58333" stroke-linecap="round" stroke-linejoin="round"/>
</svg>
