<svg width="72" height="71" viewBox="0 0 72 71" fill="none" xmlns="http://www.w3.org/2000/svg">
<path d="M41.2444 70.0228C33.0129 70.0228 26.7297 67.7336 22.3948 63.1552C18.1085 58.5767 15.9654 52.0743 15.9654 43.648C15.9654 39.4592 16.623 35.7331 17.9381 32.4697C19.2532 29.1576 21.0553 26.3813 23.3445 24.1408C25.6338 21.8516 28.3614 20.1225 31.5273 18.9535C34.6933 17.7845 38.1271 17.2001 41.8289 17.2001C43.972 17.2001 45.9203 17.3705 47.6737 17.7115C49.4272 18.0037 50.9614 18.369 52.2765 18.8074C53.5916 19.1971 54.6875 19.6111 55.5642 20.0494C56.441 20.4878 57.0742 20.8287 57.4638 21.0723L54.1761 30.2779C52.6175 29.4499 50.791 28.7436 48.6966 28.1591C46.6509 27.5747 44.3129 27.2824 41.6827 27.2824C39.9293 27.2824 38.2002 27.5747 36.4954 28.1591C34.8394 28.7436 33.3538 29.6934 32.0387 31.0085C30.7724 32.2749 29.7495 33.9309 28.9702 35.9766C28.1909 38.0223 27.8012 40.5064 27.8012 43.4288C27.8012 45.7667 28.0448 47.9586 28.5318 50.0043C29.0676 52.0012 29.8956 53.7303 31.0159 55.1916C32.1849 56.6528 33.6948 57.8217 35.5457 58.6985C37.3965 59.5265 39.637 59.9405 42.2672 59.9405C43.9233 59.9405 45.4088 59.8431 46.7239 59.6482C48.039 59.4534 49.208 59.2342 50.2308 58.9907C51.2537 58.6985 52.1548 58.3819 52.9341 58.0409C53.7134 57.7 54.4196 57.3834 55.0528 57.0911L58.1944 66.2237C56.5871 67.1978 54.3222 68.0746 51.3998 68.8539C48.4774 69.6332 45.0922 70.0228 41.2444 70.0228Z" fill="#8D70DD"/>
<path d="M49.8249 47.4404C48.7727 47.4404 47.9167 46.5844 47.9167 45.5323V42.3633C47.9167 41.3112 48.7727 40.4552 49.8249 40.4552H54.797C54.8271 40.4552 54.857 40.4561 54.8868 40.4574V37.3007C54.8868 36.4881 54.2281 35.8293 53.4155 35.8293H35.1734C34.3608 35.8293 33.7021 36.488 33.7021 37.3006V50.5949C33.7021 51.4075 34.3608 52.0663 35.1734 52.0663H53.4155C54.2281 52.0663 54.8868 51.4075 54.8868 50.5949V47.4381C54.857 47.4395 54.8271 47.4404 54.797 47.4404H49.8249Z" fill="#8D70DD"/>
<path d="M54.797 41.5007H49.8249C49.3485 41.5007 48.9623 41.8869 48.9623 42.3633V45.5322C48.9623 46.0086 49.3485 46.3948 49.8249 46.3948H54.797C55.2734 46.3948 55.6596 46.0087 55.6596 45.5322V42.3633C55.6596 41.8869 55.2734 41.5007 54.797 41.5007ZM51.5382 45.1927C50.8506 45.1927 50.2932 44.6353 50.2932 43.9477C50.2932 43.2601 50.8506 42.7027 51.5382 42.7027C52.2258 42.7027 52.7832 43.2601 52.7832 43.9477C52.7832 44.6353 52.2258 45.1927 51.5382 45.1927Z" fill="#8D70DD"/>
<path d="M50.8536 33.1342C50.5244 32.1379 49.4499 31.597 48.4536 31.9262L40.9789 34.3957H51.2703L50.8536 33.1342Z" fill="#8D70DD"/>
</svg>
